2200 0 1 0           
15 SolidWorks 2017 12 ACIS 22.0 NT 24 Fri Jan 05 08:34:43 2018 
1 9.9999999999999995e-007 1e-010 
-0 body $1 -1 -1 $-1 $2 $-1 $-1 F #
-1 name_attrib-gen-attrib $-1 -1 $-1 $-1 $0 2 1 1 1 1 1 1 1 1 1 1 1 1 1 0 1 1 1 @18 usb board retainer #
-2 lump $3 -1 -1 $-1 $-1 $4 $0 F #
-3 rgb_color-st-attrib $-1 -1 $-1 $-1 $2 2 1 2 1 1 1 1 1 1 1 1 1 1 1 0 1 1 1 0.792156862745098 0.81960784313725488 0.93333333333333335 #
-4 shell $-1 -1 -1 $-1 $-1 $-1 $5 $-1 $2 F #
-5 face $6 -1 -1 $-1 $7 $8 $4 $-1 $9 reversed single F T -0.92307692307692391 3.3846153846153886 -3.1510659865107131 0.0094733329188327765 #
-6 integer_attrib-name_attrib-gen-attrib $-1 -1 $-1 $-1 $5 2 1 2 1 1 1 1 1 1 1 1 1 1 1 0 1 1 1 @11 DeleteFace1 0 #
-7 face $10 -1 -1 $-1 $11 $12 $4 $-1 $13 reversed single F T -4.3749999999999885 -1.8749999999999947 -3.1415926535897931 0 #
-8 loop $-1 -1 -1 $-1 $-1 $14 $5 F unknown #
-9 cone-surface $-1 -1 -1 $-1 -41.182321583241908 3.5000000000000009 7 0 0 1 3.249999999999996 0 0 1 I I 0 1 3.249999999999996 forward I I I I #
-10 integer_attrib-name_attrib-gen-attrib $-1 -1 $-1 $-1 $7 2 1 2 1 1 1 1 1 1 1 1 1 1 1 0 1 1 1 @11 DeleteFace1 0 #
-11 face $15 -1 -1 $-1 $16 $17 $4 $-1 $18 reversed single F T -0.92307692307692391 3.3846153846153886 -3.1510659865103969 0.0094733329206567688 #
-12 loop $-1 -1 -1 $-1 $-1 $19 $7 F unknown #
-13 cone-surface $-1 -1 -1 $-1 -41.182321583241908 3.5000000000000009 7 0 0 1 1.6000000000000041 0 0 1 I I 0 1 1.6000000000000041 forward I I I I #
-14 coedge $-1 -1 -1 $-1 $20 $21 $22 $23 reversed $8 $-1 #
-15 integer_attrib-name_attrib-gen-attrib $-1 -1 $-1 $-1 $11 2 1 2 1 1 1 1 1 1 1 1 1 1 1 0 1 1 1 @11 DeleteFace1 0 #
-16 face $24 -1 -1 $-1 $25 $26 $4 $-1 $27 reversed single F T -4.3749999999999885 -1.8749999999999947 -3.1415926535897931 0 #
-17 loop $-1 -1 -1 $-1 $-1 $28 $11 F unknown #
-18 cone-surface $-1 -1 -1 $-1 -3.8176784167581062 3.5000000000000009 7 0 0 1 3.249999999999996 0 0 1 I I 0 1 3.249999999999996 forward I I I I #
-19 coedge $-1 -1 -1 $-1 $29 $30 $31 $32 reversed $12 $-1 #
-20 coedge $-1 -1 -1 $-1 $33 $14 $34 $35 forward $8 $-1 #
-21 coedge $-1 -1 -1 $-1 $14 $36 $37 $38 reversed $8 $-1 #
-22 coedge $-1 -1 -1 $-1 $39 $39 $14 $23 forward $40 $-1 #
-23 edge $-1 -1 -1 $-1 $41 -3.1415926535897931 $42 0 $22 $43 forward @7 unknown F #
-24 integer_attrib-name_attrib-gen-attrib $-1 -1 $-1 $-1 $16 2 1 2 1 1 1 1 1 1 1 1 1 1 1 0 1 1 1 @11 DeleteFace1 0 #
-25 face $44 -1 -1 $-1 $45 $46 $4 $-1 $47 forward single F F #
-26 loop $-1 -1 -1 $-1 $-1 $48 $16 F unknown #
-27 cone-surface $-1 -1 -1 $-1 -3.8176784167581062 3.5000000000000009 7 0 0 1 1.6000000000000041 0 0 1 I I 0 1 1.6000000000000041 forward I I I I #
-28 coedge $-1 -1 -1 $-1 $49 $50 $51 $52 reversed $17 $-1 #
-29 coedge $-1 -1 -1 $-1 $53 $19 $54 $55 forward $12 $-1 #
-30 coedge $-1 -1 -1 $-1 $19 $53 $56 $57 reversed $12 $-1 #
-31 coedge $-1 -1 -1 $-1 $58 $58 $19 $32 forward $59 $-1 #
-32 edge $-1 -1 -1 $-1 $60 -3.1415926535897931 $61 0 $31 $62 forward @7 unknown F #
-33 coedge $-1 -1 -1 $-1 $63 $20 $64 $65 forward $8 $-1 #
-34 coedge $-1 -1 -1 $-1 $66 $67 $20 $35 reversed $68 $-1 #
-35 edge $-1 -1 -1 $-1 $41 -0.0029999999999999992 $69 0.0029999999999999892 $20 $70 forward @7 unknown F #
-36 coedge $-1 -1 -1 $-1 $21 $71 $72 $73 forward $8 $-1 #
-37 coedge $-1 -1 -1 $-1 $74 $66 $21 $38 forward $68 $-1 #
-38 edge $-1 -1 -1 $-1 $42 -0.0029999999999999992 $75 0.0029999999999999771 $37 $76 forward @7 unknown F #
-39 coedge $-1 -1 -1 $-1 $22 $22 $66 $77 forward $40 $-1 #
-40 loop $-1 -1 -1 $-1 $-1 $39 $78 F unknown #
-41 vertex $-1 -1 -1 $-1 $35 $79 #
-42 vertex $-1 -1 -1 $-1 $23 $80 #
-43 ellipse-curve $-1 -1 -1 $-1 -41.182321583241908 3.5000000000000009 4.0000000000000009 0 0 1 3.249999999999996 0 0 1 I I #
-44 integer_attrib-name_attrib-gen-attrib $-1 -1 $-1 $-1 $25 2 1 2 1 1 1 1 1 1 1 1 1 1 1 0 1 1 1 @11 DeleteFace1 0 #
-45 face $81 -1 -1 $-1 $82 $83 $4 $-1 $84 forward single F F #
-46 loop $-1 -1 -1 $-1 $-1 $85 $25 F unknown #
-47 plane-surface $-1 -1 -1 $-1 -45.000000000000014 1.9999999999999813 1.8369701987210277e-016 -4.3368086899420187e-016 1 1.2046690805394496e-016 -1000 -4.3368086899420187e-013 0 forward_v I I I I #
-48 coedge $-1 -1 -1 $-1 $86 $87 $88 $89 reversed $26 $-1 #
-49 coedge $-1 -1 -1 $-1 $90 $28 $91 $92 forward $17 $-1 #
-50 coedge $-1 -1 -1 $-1 $28 $93 $94 $95 reversed $17 $-1 #
-51 coedge $-1 -1 -1 $-1 $96 $96 $28 $52 forward $97 $-1 #
-52 edge $-1 -1 -1 $-1 $98 -3.1415926535897931 $99 0 $51 $100 forward @7 unknown F #
-53 coedge $-1 -1 -1 $-1 $30 $29 $101 $102 forward $12 $-1 #
-54 coedge $-1 -1 -1 $-1 $103 $104 $29 $55 reversed $105 $-1 #
-55 edge $-1 -1 -1 $-1 $60 -0.0070000000000000001 $106 -0.0029999999999999992 $29 $107 forward @7 unknown F #
-56 coedge $-1 -1 -1 $-1 $104 $103 $30 $57 forward $105 $-1 #
-57 edge $-1 -1 -1 $-1 $61 -0.0070000000000000001 $108 -0.0029999999999999992 $56 $109 forward @7 unknown F #
-58 coedge $-1 -1 -1 $-1 $31 $31 $103 $110 forward $59 $-1 #
-59 loop $-1 -1 -1 $-1 $-1 $58 $111 F unknown #
-60 vertex $-1 -1 -1 $-1 $55 $112 #
-61 vertex $-1 -1 -1 $-1 $32 $113 #
-62 ellipse-curve $-1 -1 -1 $-1 -41.182321583241908 3.5000000000000009 1.8369701987210277e-016 0 0 1 1.6000000000000041 0 0 1 I I #
-63 coedge $-1 -1 -1 $-1 $114 $33 $115 $116 reversed $8 $-1 #
-64 coedge $-1 -1 -1 $-1 $117 $118 $33 $65 reversed $119 $-1 #
-65 edge $-1 -1 -1 $-1 $69 4.7123889803846888 $120 5.1921176180604496 $33 $121 forward @7 unknown F #
-66 coedge $-1 -1 -1 $-1 $37 $34 $39 $77 reversed $68 $-1 #
-67 coedge $-1 -1 -1 $-1 $34 $122 $117 $123 forward $68 $-1 #
-68 loop $-1 -1 -1 $-1 $-1 $34 $124 F unknown #
-69 vertex $-1 -1 -1 $-1 $35 $125 #
-70 straight-curve $-1 -1 -1 $-1 -44.432321583241901 3.5000000000000013 7 0 0 1000 I I #
-71 coedge $-1 -1 -1 $-1 $36 $114 $126 $127 reversed $8 $-1 #
-72 coedge $-1 -1 -1 $-1 $128 $129 $36 $73 reversed $130 $-1 #
-73 edge $-1 -1 -1 $-1 $131 1.091067689119136 $75 1.5707963267948963 $36 $132 forward @7 unknown F #
-74 coedge $-1 -1 -1 $-1 $122 $37 $129 $133 forward $68 $-1 #
-75 vertex $-1 -1 -1 $-1 $38 $134 #
-76 straight-curve $-1 -1 -1 $-1 -37.932321583241915 3.5000000000000009 7 0 0 1000 I I #
-77 edge $-1 -1 -1 $-1 $42 0 $41 3.1415926535897931 $39 $135 forward @7 unknown F #
-78 face $136 -1 -1 $-1 $124 $137 $4 $-1 $138 reversed single F F #
-79 point $-1 -1 -1 $-1 -44.432321583241901 3.5000000000000013 4.0000000000000009 #
-80 point $-1 -1 -1 $-1 -37.932321583241915 3.5000000000000009 4.0000000000000009 #
-81 integer_attrib-name_attrib-gen-attrib $-1 -1 $-1 $-1 $45 2 1 2 1 1 1 1 1 1 1 1 1 1 1 0 1 1 1 @11 DeleteFace1 0 #
-82 face $139 -1 -1 $-1 $140 $141 $4 $-1 $142 forward single F F #
-83 loop $-1 -1 -1 $-1 $-1 $115 $45 F unknown #
-84 plane-surface $-1 -1 -1 $-1 -45.000000000000014 1.9999999999999813 1.8369701987210277e-016 -4.3368086899420187e-016 1 1.2046690805394496e-016 -1000 -4.3368086899420187e-013 0 forward_v I I I I #
-85 coedge $-1 -1 -1 $-1 $143 $144 $145 $146 forward $46 $-1 #
-86 coedge $-1 -1 -1 $-1 $147 $48 $148 $149 forward $26 $-1 #
-87 coedge $-1 -1 -1 $-1 $48 $147 $150 $151 reversed $26 $-1 #
-88 coedge $-1 -1 -1 $-1 $152 $152 $48 $89 forward $153 $-1 #
-89 edge $-1 -1 -1 $-1 $154 -3.1415926535897931 $155 0 $88 $156 forward @7 unknown F #
-90 coedge $-1 -1 -1 $-1 $145 $49 $157 $158 forward $17 $-1 #
-91 coedge $-1 -1 -1 $-1 $159 $160 $49 $92 reversed $161 $-1 #
-92 edge $-1 -1 -1 $-1 $98 -0.0029999999999999992 $162 0.0029999999999999927 $49 $163 forward @7 unknown F #
-93 coedge $-1 -1 -1 $-1 $50 $164 $165 $166 forward $17 $-1 #
-94 coedge $-1 -1 -1 $-1 $167 $159 $50 $95 forward $161 $-1 #
-95 edge $-1 -1 -1 $-1 $99 -0.0029999999999999992 $168 0.0030000000000000087 $94 $169 forward @7 unknown F #
-96 coedge $-1 -1 -1 $-1 $51 $51 $159 $170 forward $97 $-1 #
-97 loop $-1 -1 -1 $-1 $-1 $96 $171 F unknown #
-98 vertex $-1 -1 -1 $-1 $92 $172 #
-99 vertex $-1 -1 -1 $-1 $52 $173 #
-100 ellipse-curve $-1 -1 -1 $-1 -3.8176784167581062 3.5000000000000009 4.0000000000000009 0 0 1 3.249999999999996 0 0 1 I I #
-101 coedge $-1 -1 -1 $-1 $174 $174 $53 $102 reversed $137 $-1 #
-102 edge $-1 -1 -1 $-1 $106 -3.1415926535897931 $108 0 $53 $175 forward @7 unknown F #
-103 coedge $-1 -1 -1 $-1 $56 $54 $58 $110 reversed $105 $-1 #
-104 coedge $-1 -1 -1 $-1 $54 $56 $174 $176 forward $105 $-1 #
-105 loop $-1 -1 -1 $-1 $-1 $54 $177 F unknown #
-106 vertex $-1 -1 -1 $-1 $55 $178 #
-107 straight-curve $-1 -1 -1 $-1 -42.782321583241909 3.5000000000000009 7 0 0 1000 I I #
-108 vertex $-1 -1 -1 $-1 $102 $179 #
-109 straight-curve $-1 -1 -1 $-1 -39.582321583241907 3.5000000000000009 7 0 0 1000 I I #
-110 edge $-1 -1 -1 $-1 $61 0 $60 3.1415926535897931 $58 $180 forward @7 unknown F #
-111 face $181 -1 -1 $-1 $182 $183 $4 $-1 $184 reversed single F F #
-112 point $-1 -1 -1 $-1 -42.782321583241909 3.5000000000000009 1.8369701987210277e-016 #
-113 point $-1 -1 -1 $-1 -39.582321583241907 3.5000000000000009 1.8369701987210277e-016 #
-114 coedge $-1 -1 -1 $-1 $71 $63 $185 $186 forward $8 $-1 #
-115 coedge $-1 -1 -1 $-1 $187 $188 $63 $116 forward $83 $-1 #
-116 edge $-1 -1 -1 $-1 $189 0 $120 0.0064999999999999737 $115 $190 forward @7 unknown F #
-117 coedge $-1 -1 -1 $-1 $191 $64 $67 $123 reversed $119 $-1 #
-118 coedge $-1 -1 -1 $-1 $64 $192 $187 $193 reversed $119 $-1 #
-119 loop $-1 -1 -1 $-1 $-1 $117 $194 F unknown #
-120 vertex $-1 -1 -1 $-1 $65 $195 #
-121 intcurve-curve $-1 -1 -1 $-1 forward { exactcur full nurbs 3 open 2 
	4.7123889803846888 3 5.1921176180604496 3 
	-44.432321583241901 3.5000000000000013 9.9999999999999893 1 
	-44.432321583241901 2.9752474974421164 10.524752502557879 0.98091347845310628 
	-44.307655694628622 2.465518544804516 11.034481455195484 0.98091347845310628 
	-44.065462231909592 1.99999999999998 11.500000000000027 1 
	0 
	null_surface 
	null_surface 
	nullbs 
	nullbs 
	-1 
	-1 
	I I 
	0 
	0 
	0 
	
	-1 
	none F F 1 F 0 } I I #
-122 coedge $-1 -1 -1 $-1 $67 $74 $196 $197 forward $68 $-1 #
-123 edge $-1 -1 -1 $-1 $198 3.5363837732895806 $69 4.7123889803846888 $67 $199 forward @7 unknown F #
-124 face $200 -1 -1 $-1 $201 $68 $4 $-1 $202 reversed single F T -0.92307692307692391 0.94687360259256581 -0.023796679515648629 3.1653893331052685 #
-125 point $-1 -1 -1 $-1 -44.432321583241901 3.5000000000000013 9.9999999999999893 #
-126 coedge $-1 -1 -1 $-1 $144 $143 $71 $127 forward $46 $-1 #
-127 edge $-1 -1 -1 $-1 $131 -0.0065000000000000162 $203 0 $126 $204 forward @7 unknown F #
-128 coedge $-1 -1 -1 $-1 $157 $72 $143 $205 reversed $130 $-1 #
-129 coedge $-1 -1 -1 $-1 $72 $206 $74 $133 reversed $130 $-1 #
-130 loop $-1 -1 -1 $-1 $-1 $72 $207 F unknown #
-131 vertex $-1 -1 -1 $-1 $205 $208 #
-132 intcurve-curve $-1 -1 -1 $-1 forward { exactcur full nurbs 3 open 2 
	1.091067689119136 3 1.5707963267948963 3 
	-38.299180934574224 1.9999999999999827 11.499999999999984 1 
	-38.056987471855194 2.4655185448045156 11.034481455195452 0.98091347845310628 
	-37.932321583241915 2.975247497442115 10.52475250255786 0.98091347845310628 
	-37.932321583241915 3.5000000000000009 9.9999999999999769 1 
	0 
	null_surface 
	null_surface 
	nullbs 
	nullbs 
	-1 
	-1 
	I I 
	0 
	0 
	0 
	
	-1 
	none F F 1 F 0 } I I #
-133 edge $-1 -1 -1 $-1 $75 1.5707963267948963 $209 2.746801533890042 $74 $210 forward @7 unknown F #
-134 point $-1 -1 -1 $-1 -37.932321583241915 3.5000000000000009 9.9999999999999769 #
-135 ellipse-curve $-1 -1 -1 $-1 -41.182321583241908 3.5000000000000009 4.0000000000000009 0 0 1 3.249999999999996 0 0 1 I I #
-136 integer_attrib-name_attrib-gen-attrib $-1 -1 $-1 $-1 $78 2 1 2 1 1 1 1 1 1 1 1 1 1 1 0 1 1 1 @11 DeleteFace1 0 #
-137 loop $-1 -1 -1 $-1 $40 $174 $78 F unknown #
-138 plane-surface $-1 -1 -1 $-1 -39.582321583241892 3.5000000000000009 4.0000000000000009 0 0 -1 -1000 0 0 forward_v I I I I #
-139 integer_attrib-name_attrib-gen-attrib $-1 -1 $-1 $-1 $82 2 1 2 1 1 1 1 1 1 1 1 1 1 1 0 1 1 1 @11 DeleteFace1 0 #
-140 face $211 -1 -1 $-1 $212 $213 $4 $-1 $214 reversed single F F #
-141 loop $-1 -1 -1 $-1 $-1 $215 $82 F unknown #
-142 plane-surface $-1 -1 -1 $-1 -45.000000000000014 1.9999999999999813 1.8369701987210277e-016 -4.3368086899420187e-016 1 1.2046690805394496e-016 -1000 -4.3368086899420187e-013 0 forward_v I I I I #
-143 coedge $-1 -1 -1 $-1 $126 $85 $128 $205 forward $46 $-1 #
-144 coedge $-1 -1 -1 $-1 $85 $126 $216 $217 forward $46 $-1 #
-145 coedge $-1 -1 -1 $-1 $218 $90 $85 $146 reversed $17 $-1 #
-146 edge $-1 -1 -1 $-1 $219 0 $220 0.0065000000000000162 $85 $221 forward @7 unknown F #
-147 coedge $-1 -1 -1 $-1 $87 $86 $222 $223 forward $26 $-1 #
-148 coedge $-1 -1 -1 $-1 $224 $225 $86 $149 reversed $226 $-1 #
-149 edge $-1 -1 -1 $-1 $154 -0.0070000000000000001 $227 -0.0029999999999999992 $86 $228 forward @7 unknown F #
-150 coedge $-1 -1 -1 $-1 $225 $224 $87 $151 forward $226 $-1 #
-151 edge $-1 -1 -1 $-1 $155 -0.0070000000000000001 $229 -0.0029999999999999992 $150 $230 forward @7 unknown F #
-152 coedge $-1 -1 -1 $-1 $88 $88 $224 $231 forward $153 $-1 #
-153 loop $-1 -1 -1 $-1 $59 $152 $111 F unknown #
-154 vertex $-1 -1 -1 $-1 $149 $232 #
-155 vertex $-1 -1 -1 $-1 $89 $233 #
-156 ellipse-curve $-1 -1 -1 $-1 -3.8176784167581062 3.5000000000000009 1.8369701987210277e-016 0 0 1 1.6000000000000041 0 0 1 I I #
-157 coedge $-1 -1 -1 $-1 $234 $128 $90 $158 reversed $130 $-1 #
-158 edge $-1 -1 -1 $-1 $162 4.7123889803846888 $220 5.1921176180604443 $90 $235 forward @7 unknown F #
-159 coedge $-1 -1 -1 $-1 $94 $91 $96 $170 reversed $161 $-1 #
-160 coedge $-1 -1 -1 $-1 $91 $236 $234 $237 forward $161 $-1 #
-161 loop $-1 -1 -1 $-1 $-1 $91 $238 F unknown #
-162 vertex $-1 -1 -1 $-1 $92 $239 #
-163 straight-curve $-1 -1 -1 $-1 -7.0676784167581026 3.5000000000000013 7 0 0 1000 I I #
-164 coedge $-1 -1 -1 $-1 $93 $218 $240 $241 reversed $17 $-1 #
-165 coedge $-1 -1 -1 $-1 $242 $243 $93 $166 reversed $244 $-1 #
-166 edge $-1 -1 -1 $-1 $245 1.0910676891191418 $168 1.5707963267948961 $93 $246 forward @7 unknown F #
-167 coedge $-1 -1 -1 $-1 $236 $94 $243 $247 forward $161 $-1 #
-168 vertex $-1 -1 -1 $-1 $95 $248 #
-169 straight-curve $-1 -1 -1 $-1 -0.56767841675810971 3.5000000000000009 7 0 0 1000 I I #
-170 edge $-1 -1 -1 $-1 $99 0 $98 3.1415926535897931 $96 $249 forward @7 unknown F #
-171 face $250 -1 -1 $-1 $238 $251 $4 $-1 $252 reversed single F F #
-172 point $-1 -1 -1 $-1 -7.0676784167581026 3.5000000000000013 4.0000000000000009 #
-173 point $-1 -1 -1 $-1 -0.56767841675810971 3.5000000000000009 4.0000000000000009 #
-174 coedge $-1 -1 -1 $-1 $101 $101 $104 $176 reversed $137 $-1 #
-175 ellipse-curve $-1 -1 -1 $-1 -41.182321583241908 3.5000000000000009 4.0000000000000009 0 0 1 1.6000000000000112 0 0 1 I I #
-176 edge $-1 -1 -1 $-1 $108 0 $106 3.1415926535897931 $104 $253 forward @7 unknown F #
-177 face $254 -1 -1 $-1 $78 $105 $4 $-1 $255 reversed single F T -4.3749999999999885 -1.8749999999999947 0 3.1415926535897931 #
-178 point $-1 -1 -1 $-1 -42.782321583241924 3.5000000000000009 4.0000000000000009 #
-179 point $-1 -1 -1 $-1 -39.582321583241892 3.5000000000000009 4.0000000000000009 #
-180 ellipse-curve $-1 -1 -1 $-1 -41.182321583241908 3.5000000000000009 1.8369701987210277e-016 0 0 1 1.6000000000000041 0 0 1 I I #
-181 integer_attrib-name_attrib-gen-attrib $-1 -1 $-1 $-1 $111 2 1 2 1 1 1 1 1 1 1 1 1 1 1 0 1 1 1 @11 DeleteFace1 0 #
-182 face $256 -1 -1 $-1 $257 $258 $4 $-1 $259 forward single F F #
-183 loop $-1 -1 -1 $-1 $153 $260 $111 F unknown #
-184 plane-surface $-1 -1 -1 $-1 -22.500000000000007 4.5000000000000009 1.8369701987210277e-016 0 0 1 1000 0 0 forward_v I I I I #
-185 coedge $-1 -1 -1 $-1 $261 $216 $114 $186 reversed $262 $-1 #
-186 edge $-1 -1 -1 $-1 $189 -2.6618640159140323 $203 -0.47972863767575991 $114 $263 forward @7 unknown F #
-187 coedge $-1 -1 -1 $-1 $264 $115 $118 $193 forward $83 $-1 #
-188 coedge $-1 -1 -1 $-1 $115 $264 $261 $265 forward $83 $-1 #
-189 vertex $-1 -1 -1 $-1 $116 $266 #
-190 straight-curve $-1 -1 -1 $-1 -44.065462231909592 1.99999999999998 18 0 0 -1000 I I #
-191 coedge $-1 -1 -1 $-1 $192 $117 $267 $268 reversed $119 $-1 #
-192 coedge $-1 -1 -1 $-1 $118 $191 $269 $270 reversed $119 $-1 #
-193 edge $-1 -1 -1 $-1 $120 -0.00093453776809041499 $271 7.105427357601002e-018 $187 $272 forward @7 unknown F #
-194 face $273 -1 -1 $-1 $274 $119 $4 $-1 $275 forward single F F #
-195 point $-1 -1 -1 $-1 -44.065462231909592 1.99999999999998 11.500000000000027 #
-196 coedge $-1 -1 -1 $-1 $276 $267 $122 $197 reversed $277 $-1 #
-197 edge $-1 -1 -1 $-1 $209 1.1760052070951463 $198 1.9655874464946845 $122 $278 forward @7 unknown F #
-198 vertex $-1 -1 -1 $-1 $268 $279 #
-199 intcurve-curve $-1 -1 -1 $-1 forward { exactcur full nurbs 3 open 2 
	3.5363837732895806 3 4.7123889803846888 3 
	-42.432321583241986 6.4999999999999627 7 1 
	-43.681599178652036 5.9794676685790735 7.5205323314208945 0.8880335295585674 
	-44.432321583241901 4.853384061694233 8.6466159383057466 0.8880335295585674 
	-44.432321583241901 3.5000000000000013 9.9999999999999893 1 
	0 
	null_surface 
	null_surface 
	nullbs 
	nullbs 
	-1 
	-1 
	I I 
	0 
	0 
	0 
	
	-1 
	none F F 1 F 0 } I I #
-200 integer_attrib-name_attrib-gen-attrib $-1 -1 $-1 $-1 $124 2 1 2 1 1 1 1 1 1 1 1 1 1 1 0 1 1 1 @11 DeleteFace1 0 #
-201 face $280 -1 -1 $-1 $281 $262 $4 $-1 $282 forward single F F #
-202 cone-surface $-1 -1 -1 $-1 -41.182321583241908 3.5000000000000009 7 0 0 1 3.249999999999996 0 0 1 I I 0 1 3.249999999999996 forward I I I I #
-203 vertex $-1 -1 -1 $-1 $127 $283 #
-204 straight-curve $-1 -1 -1 $-1 -38.299180934574224 1.9999999999999827 18 0 0 1000 I I #
-205 edge $-1 -1 -1 $-1 $220 -0.031598361869148425 $131 1.9259299443872363e-034 $143 $284 forward @7 unknown F #
-206 coedge $-1 -1 -1 $-1 $129 $234 $276 $285 reversed $130 $-1 #
-207 face $286 -1 -1 $-1 $-1 $130 $4 $-1 $287 forward single F F #
-208 point $-1 -1 -1 $-1 -38.299180934574224 1.9999999999999827 11.499999999999984 #
-209 vertex $-1 -1 -1 $-1 $133 $288 #
-210 intcurve-curve $-1 -1 -1 $-1 forward { exactcur full nurbs 3 open 2 
	1.5707963267948963 3 2.746801533890042 3 
	-37.932321583241915 3.5000000000000009 9.9999999999999769 1 
	-37.932321583241915 4.85338406169428 8.6466159383057146 0.88803352955856041 
	-38.68304398783183 5.9794676685791472 7.520532331420859 0.88803352955856041 
	-39.932321583241944 6.5000000000000115 7 1 
	0 
	null_surface 
	null_surface 
	nullbs 
	nullbs 
	-1 
	-1 
	I I 
	0 
	0 
	0 
	
	-1 
	none F F 1 F 0 } I I #
-211 integer_attrib-name_attrib-gen-attrib $-1 -1 $-1 $-1 $140 2 1 2 1 1 1 1 1 1 1 1 1 1 1 0 1 1 1 @11 DeleteFace1 0 #
-212 face $289 -1 -1 $-1 $290 $291 $4 $-1 $292 reversed single F F #
-213 loop $-1 -1 -1 $-1 $-1 $293 $140 F unknown #
-214 plane-surface $-1 -1 -1 $-1 11.999999999999993 6.9999999999999929 7 -1 6.9388939039072294e-016 0 -6.9388939039072294e-013 -1000 0 forward_v I I I I #
-215 coedge $-1 -1 -1 $-1 $294 $295 $296 $297 reversed $141 $-1 #
-216 coedge $-1 -1 -1 $-1 $185 $298 $144 $217 reversed $262 $-1 #
-217 edge $-1 -1 -1 $-1 $203 0.00670081906542579 $219 0.038299180934574219 $144 $299 forward @7 unknown F #
-218 coedge $-1 -1 -1 $-1 $164 $145 $298 $300 forward $17 $-1 #
-219 vertex $-1 -1 -1 $-1 $146 $301 #
-220 vertex $-1 -1 -1 $-1 $158 $302 #
-221 straight-curve $-1 -1 -1 $-1 -6.7008190654257973 1.999999999999996 18 0 0 -1000 I I #
-222 coedge $-1 -1 -1 $-1 $303 $303 $147 $223 reversed $251 $-1 #
-223 edge $-1 -1 -1 $-1 $227 -3.1415926535897931 $229 0 $147 $304 forward @7 unknown F #
-224 coedge $-1 -1 -1 $-1 $150 $148 $152 $231 reversed $226 $-1 #
-225 coedge $-1 -1 -1 $-1 $148 $150 $303 $305 forward $226 $-1 #
-226 loop $-1 -1 -1 $-1 $-1 $148 $257 F unknown #
-227 vertex $-1 -1 -1 $-1 $149 $306 #
-228 straight-curve $-1 -1 -1 $-1 -5.4176784167581111 3.5000000000000009 7 0 0 1000 I I #
-229 vertex $-1 -1 -1 $-1 $223 $307 #
-230 straight-curve $-1 -1 -1 $-1 -2.2176784167581012 3.5000000000000009 7 0 0 1000 I I #
-231 edge $-1 -1 -1 $-1 $155 0 $154 3.1415926535897931 $152 $308 forward @7 unknown F #
-232 point $-1 -1 -1 $-1 -5.4176784167581111 3.5000000000000009 1.8369701987210277e-016 #
-233 point $-1 -1 -1 $-1 -2.2176784167581012 3.5000000000000009 1.8369701987210277e-016 #
-234 coedge $-1 -1 -1 $-1 $206 $157 $160 $237 reversed $130 $-1 #
-235 intcurve-curve $-1 -1 -1 $-1 forward { exactcur full nurbs 3 open 2 
	4.7123889803846888 3 5.1921176180604443 3 
	-7.0676784167581026 3.5000000000000013 9.9999999999999929 1 
	-7.0676784167581044 2.9752474974421226 10.524752502557867 0.98091347845310661 
	-6.9430125281448216 2.4655185448045276 11.034481455195456 0.98091347845310661 
	-6.7008190654257973 1.999999999999996 11.499999999999984 1 
	0 
	null_surface 
	null_surface 
	nullbs 
	nullbs 
	-1 
	-1 
	I I 
	0 
	0 
	0 
	
	-1 
	none F F 1 F 0 } I I #
-236 coedge $-1 -1 -1 $-1 $160 $167 $309 $310 forward $161 $-1 #
-237 edge $-1 -1 -1 $-1 $311 3.5363837732895305 $162 4.7123889803846888 $160 $312 forward @7 unknown F #
-238 face $313 -1 -1 $-1 $177 $161 $4 $-1 $314 reversed single F T -0.92307692307692391 0.94687360259253317 -0.023796679515606222 3.1653893331053613 #
-239 point $-1 -1 -1 $-1 -7.0676784167581026 3.5000000000000013 9.9999999999999929 #
-240 coedge $-1 -1 -1 $-1 $295 $294 $164 $241 forward $141 $-1 #
-241 edge $-1 -1 -1 $-1 $245 -0.0064999999999999737 $315 0 $240 $316 forward @7 unknown F #
-242 coedge $-1 -1 -1 $-1 $317 $165 $294 $318 reversed $244 $-1 #
-243 coedge $-1 -1 -1 $-1 $165 $319 $167 $247 reversed $244 $-1 #
-244 loop $-1 -1 -1 $-1 $-1 $317 $274 F unknown #
-245 vertex $-1 -1 -1 $-1 $166 $320 #
-246 intcurve-curve $-1 -1 -1 $-1 forward { exactcur full nurbs 3 open 2 
	1.0910676891191418 3 1.5707963267948961 3 
	-0.934537768090415 1.9999999999999987 11.500000000000027 1 
	-0.69234430537138891 2.4655185448045276 11.034481455195492 0.98091347845310672 
	-0.56767841675810971 2.9752474974421212 10.524752502557893 0.98091347845310672 
	-0.56767841675810971 3.5000000000000009 10.000000000000009 1 
	0 
	null_surface 
	null_surface 
	nullbs 
	nullbs 
	-1 
	-1 
	I I 
	0 
	0 
	0 
	
	-1 
	none F F 1 F 0 } I I #
-247 edge $-1 -1 -1 $-1 $168 1.5707963267948961 $321 2.7468015338900167 $167 $322 forward @7 unknown F #
-248 point $-1 -1 -1 $-1 -0.56767841675810971 3.5000000000000009 10.000000000000009 #
-249 ellipse-curve $-1 -1 -1 $-1 -3.8176784167581062 3.5000000000000009 4.0000000000000009 0 0 1 3.249999999999996 0 0 1 I I #
-250 integer_attrib-name_attrib-gen-attrib $-1 -1 $-1 $-1 $171 2 1 2 1 1 1 1 1 1 1 1 1 1 1 0 1 1 1 @11 DeleteFace1 0 #
-251 loop $-1 -1 -1 $-1 $97 $303 $171 F unknown #
-252 plane-surface $-1 -1 -1 $-1 -2.2176784167580941 3.5000000000000009 4.0000000000000009 0 0 -1 -1000 0 0 forward_v I I I I #
-253 ellipse-curve $-1 -1 -1 $-1 -41.182321583241908 3.5000000000000009 4.0000000000000009 0 0 1 1.6000000000000112 0 0 1 I I #
-254 integer_attrib-name_attrib-gen-attrib $-1 -1 $-1 $-1 $177 2 1 2 1 1 1 1 1 1 1 1 1 1 1 0 1 1 1 @11 DeleteFace1 0 #
-255 cone-surface $-1 -1 -1 $-1 -41.182321583241908 3.5000000000000009 7 0 0 1 1.6000000000000041 0 0 1 I I 0 1 1.6000000000000041 forward I I I I #
-256 integer_attrib-name_attrib-gen-attrib $-1 -1 $-1 $-1 $182 2 1 2 1 1 1 1 1 1 1 1 1 1 1 0 1 1 1 @11 DeleteFace1 0 #
-257 face $323 -1 -1 $-1 $171 $226 $4 $-1 $324 reversed single F T -4.3749999999999885 -1.8749999999999947 0 3.1415926535897931 #
-258 loop $-1 -1 -1 $-1 $-1 $325 $182 F unknown #
-259 plane-surface $-1 -1 -1 $-1 -3.5527136788005009e-015 0 7.0000000000000009 -1.0842021724855046e-016 -1 0 1000 -1.0842021724855046e-013 0 forward_v I I I I #
-260 coedge $-1 -1 -1 $-1 $326 $327 $328 $329 reversed $183 $-1 #
-261 coedge $-1 -1 -1 $-1 $330 $185 $188 $265 reversed $262 $-1 #
-262 loop $-1 -1 -1 $-1 $-1 $216 $201 F unknown #
-263 ellipse-curve $-1 -1 -1 $-1 -41.182321583241908 3.5000000000000009 18 0 0 1 3.249999999999996 0 0 1 I I #
-264 coedge $-1 -1 -1 $-1 $188 $187 $331 $332 forward $83 $-1 #
-265 edge $-1 -1 -1 $-1 $333 0 $189 0.00093453776809042214 $188 $334 forward @7 unknown F #
-266 point $-1 -1 -1 $-1 -44.065462231909592 1.9999999999999805 18 #
-267 coedge $-1 -1 -1 $-1 $196 $335 $191 $268 forward $277 $-1 #
-268 edge $-1 -1 -1 $-1 $336 -0.00093453776809040794 $198 0.0016331406486676059 $267 $337 forward @7 unknown F #
-269 coedge $-1 -1 -1 $-1 $338 $331 $192 $270 forward $339 $-1 #
-270 edge $-1 -1 -1 $-1 $271 -0.0067175144212722306 $336 -0.00035355339059330005 $269 $340 forward @7 unknown F #
-271 vertex $-1 -1 -1 $-1 $270 $341 #
-272 straight-curve $-1 -1 -1 $-1 -45.000000000000007 1.99999999999998 11.500000000000025 -1000 -4.3368086899420187e-013 0 I I #
-273 integer_attrib-name_attrib-gen-attrib $-1 -1 $-1 $-1 $194 2 1 2 1 1 1 1 1 1 1 1 1 1 1 0 1 1 1 @11 DeleteFace1 0 #
-274 face $342 -1 -1 $-1 $207 $244 $4 $-1 $343 forward single F F #
-275 plane-surface $-1 -1 -1 $-1 -45.000000000000014 1.99999999999998 11.500000000000025 -3.0665868333667636e-016 0.7071067811865509 0.70710678118654424 1000 4.3368086899420187e-013 0 forward_v I I I I #
-276 coedge $-1 -1 -1 $-1 $309 $196 $206 $285 forward $277 $-1 #
-277 loop $-1 -1 -1 $-1 $-1 $335 $344 F unknown #
-278 ellipse-curve $-1 -1 -1 $-1 -41.182321583241908 3.5000000000000009 7 0 0 1 3.249999999999996 0 0 1 I I #
-279 point $-1 -1 -1 $-1 -42.432321583241986 6.4999999999999627 7 #
-280 integer_attrib-name_attrib-gen-attrib $-1 -1 $-1 $-1 $201 2 1 2 1 1 1 1 1 1 1 1 1 1 1 0 1 1 1 @11 DeleteFace1 0 #
-281 face $345 -1 -1 $-1 $346 $347 $4 $-1 $348 reversed single F F #
-282 plane-surface $-1 -1 -1 $-1 -45.000000000000014 1.9999999999999791 18 0 0 1 1000 0 0 forward_v I I I I #
-283 point $-1 -1 -1 $-1 -38.299180934574224 1.9999999999999818 18 #
-284 straight-curve $-1 -1 -1 $-1 -38.299180934574224 1.9999999999999831 11.499999999999982 -1000 -4.3368086899420187e-013 0 I I #
-285 edge $-1 -1 -1 $-1 $209 -0.033231502517816147 $311 0.0016331406486677622 $276 $349 forward @7 unknown F #
-286 integer_attrib-name_attrib-gen-attrib $-1 -1 $-1 $-1 $207 2 1 2 1 1 1 1 1 1 1 1 1 1 1 0 1 1 1 @11 DeleteFace1 0 #
-287 plane-surface $-1 -1 -1 $-1 -22.500000000000007 6.5000000000000187 7 -3.066586833366733e-016 0.70710678118654391 0.70710678118655124 -1000 -4.3368086899420187e-013 0 forward_v I I I I #
-288 point $-1 -1 -1 $-1 -39.932321583241944 6.5000000000000115 7 #
-289 integer_attrib-name_attrib-gen-attrib $-1 -1 $-1 $-1 $212 2 1 2 1 1 1 1 1 1 1 1 1 1 1 0 1 1 1 @11 DeleteFace1 0 #
-290 face $350 -1 -1 $-1 $344 $339 $4 $-1 $351 reversed single F F #
-291 loop $-1 -1 -1 $-1 $-1 $352 $212 F unknown #
-292 plane-surface $-1 -1 -1 $-1 -45 7.0000000000000018 7 -9.6373526443155962e-018 -1 0 1000 -9.6373526443155967e-015 0 forward_v I I I I #
-293 coedge $-1 -1 -1 $-1 $353 $354 $355 $356 reversed $213 $-1 #
-294 coedge $-1 -1 -1 $-1 $240 $215 $242 $318 forward $141 $-1 #
-295 coedge $-1 -1 -1 $-1 $215 $240 $357 $358 forward $141 $-1 #
-296 coedge $-1 -1 -1 $-1 $359 $353 $215 $297 forward $213 $-1 #
-297 edge $-1 -1 -1 $-1 $360 0.011500000000000024 $361 0.017999999999999999 $296 $362 forward @7 unknown F #
-298 coedge $-1 -1 -1 $-1 $216 $357 $218 $300 reversed $262 $-1 #
-299 straight-curve $-1 -1 -1 $-1 -45.000000000000014 1.9999999999999791 18 1000 4.3368086899420187e-013 0 I I #
-300 edge $-1 -1 -1 $-1 $219 -2.6618640159140377 $315 -0.47972863767575458 $218 $363 forward @7 unknown F #
-301 point $-1 -1 -1 $-1 -6.7008190654257973 1.9999999999999964 18 #
-302 point $-1 -1 -1 $-1 -6.7008190654257973 1.999999999999996 11.499999999999984 #
-303 coedge $-1 -1 -1 $-1 $222 $222 $225 $305 reversed $251 $-1 #
-304 ellipse-curve $-1 -1 -1 $-1 -3.8176784167581062 3.5000000000000009 4.0000000000000009 0 0 1 1.6000000000000112 0 0 1 I I #
-305 edge $-1 -1 -1 $-1 $229 0 $227 3.1415926535897931 $225 $364 forward @7 unknown F #
-306 point $-1 -1 -1 $-1 -5.4176784167581182 3.5000000000000009 4.0000000000000009 #
-307 point $-1 -1 -1 $-1 -2.2176784167580941 3.5000000000000009 4.0000000000000009 #
-308 ellipse-curve $-1 -1 -1 $-1 -3.8176784167581062 3.5000000000000009 1.8369701987210277e-016 0 0 1 1.6000000000000041 0 0 1 I I #
-309 coedge $-1 -1 -1 $-1 $365 $276 $236 $310 reversed $277 $-1 #
-310 edge $-1 -1 -1 $-1 $321 1.1760052070951206 $311 1.9655874464946348 $236 $366 forward @7 unknown F #
-311 vertex $-1 -1 -1 $-1 $237 $367 #
-312 intcurve-curve $-1 -1 -1 $-1 forward { exactcur full nurbs 3 open 2 
	3.5363837732895305 3 4.7123889803846888 3 
	-5.0676784167580351 6.5000000000000266 7 1 
	-6.3169560121681663 5.9794676685791739 7.5205323314208457 0.88803352955855819 
	-7.0676784167581026 4.8533840616942987 8.6466159383057111 0.88803352955855819 
	-7.0676784167581026 3.5000000000000013 9.9999999999999929 1 
	0 
	null_surface 
	null_surface 
	nullbs 
	nullbs 
	-1 
	-1 
	I I 
	0 
	0 
	0 
	
	-1 
	none F F 1 F 0 } I I #
-313 integer_attrib-name_attrib-gen-attrib $-1 -1 $-1 $-1 $238 2 1 2 1 1 1 1 1 1 1 1 1 1 1 0 1 1 1 @11 DeleteFace1 0 #
-314 cone-surface $-1 -1 -1 $-1 -3.8176784167581062 3.5000000000000009 7 0 0 1 3.249999999999996 0 0 1 I I 0 1 3.249999999999996 forward I I I I #
-315 vertex $-1 -1 -1 $-1 $241 $368 #
-316 straight-curve $-1 -1 -1 $-1 -0.934537768090415 1.9999999999999987 18 0 0 1000 I I #
-317 coedge $-1 -1 -1 $-1 $319 $242 $353 $369 reversed $244 $-1 #
-318 edge $-1 -1 -1 $-1 $360 -0.012934537768090405 $245 3.552713678800501e-018 $294 $370 forward @7 unknown F #
-319 coedge $-1 -1 -1 $-1 $243 $317 $365 $371 reversed $244 $-1 #
-320 point $-1 -1 -1 $-1 -0.934537768090415 1.9999999999999987 11.500000000000027 #
-321 vertex $-1 -1 -1 $-1 $247 $372 #
-322 intcurve-curve $-1 -1 -1 $-1 forward { exactcur full nurbs 3 open 2 
	1.5707963267948961 3 2.7468015338900167 3 
	-0.56767841675810971 3.5000000000000009 10.000000000000009 1 
	-0.56767841675810971 4.8533840616942472 8.6466159383057484 0.88803352955856507 
	-1.3184008213479999 5.9794676685790957 7.5205323314208892 0.88803352955856507 
	-2.5676784167580635 6.4999999999999796 7 1 
	0 
	null_surface 
	null_surface 
	nullbs 
	nullbs 
	-1 
	-1 
	I I 
	0 
	0 
	0 
	
	-1 
	none F F 1 F 0 } I I #
-323 integer_attrib-name_attrib-gen-attrib $-1 -1 $-1 $-1 $257 2 1 2 1 1 1 1 1 1 1 1 1 1 1 0 1 1 1 @11 DeleteFace1 0 #
-324 cone-surface $-1 -1 -1 $-1 -3.8176784167581062 3.5000000000000009 7 0 0 1 1.6000000000000041 0 0 1 I I 0 1 1.6000000000000041 forward I I I I #
-325 coedge $-1 -1 -1 $-1 $373 $374 $375 $376 reversed $258 $-1 #
-326 coedge $-1 -1 -1 $-1 $377 $260 $378 $379 reversed $183 $-1 #
-327 coedge $-1 -1 -1 $-1 $260 $380 $352 $381 reversed $183 $-1 #
-328 coedge $-1 -1 -1 $-1 $354 $382 $260 $329 forward $213 $-1 #
-329 edge $-1 -1 -1 $-1 $383 -0.012999999999999989 $384 7.9936057773011265e-018 $328 $385 forward @7 unknown F #
-330 coedge $-1 -1 -1 $-1 $386 $261 $387 $388 forward $262 $-1 #
-331 coedge $-1 -1 -1 $-1 $269 $387 $264 $332 reversed $339 $-1 #
-332 edge $-1 -1 -1 $-1 $271 0.011500000000000024 $333 0.017999999999999999 $264 $389 forward @7 unknown F #
-333 vertex $-1 -1 -1 $-1 $332 $390 #
-334 straight-curve $-1 -1 -1 $-1 -45.000000000000014 1.9999999999999791 18 1000 4.3368086899420187e-013 0 I I #
-335 coedge $-1 -1 -1 $-1 $267 $391 $338 $392 forward $277 $-1 #
-336 vertex $-1 -1 -1 $-1 $270 $393 #
-337 straight-curve $-1 -1 -1 $-1 -44.065462231909592 6.4999999999999627 7 1000 4.3368086899420187e-013 0 I I #
-338 coedge $-1 -1 -1 $-1 $394 $269 $335 $392 reversed $339 $-1 #
-339 loop $-1 -1 -1 $-1 $-1 $395 $290 F unknown #
-340 straight-curve $-1 -1 -1 $-1 -45 6.7499999999999787 6.7499999999999796 0 707.10678118654425 -707.10678118655085 I I #
-341 point $-1 -1 -1 $-1 -45.000000000000014 1.99999999999998 11.500000000000025 #
-342 integer_attrib-name_attrib-gen-attrib $-1 -1 $-1 $-1 $274 2 1 2 1 1 1 1 1 1 1 1 1 1 1 0 1 1 1 @11 DeleteFace1 0 #
-343 plane-surface $-1 -1 -1 $-1 -45.000000000000014 1.99999999999998 11.500000000000025 -3.0665868333667641e-016 0.70710678118655101 0.70710678118654424 1000 4.3368086899420187e-013 0 forward_v I I I I #
-344 face $396 -1 -1 $-1 $111 $277 $4 $-1 $397 forward single F F #
-345 integer_attrib-name_attrib-gen-attrib $-1 -1 $-1 $-1 $281 2 1 2 1 1 1 1 1 1 1 1 1 1 1 0 1 1 1 @11 DeleteFace1 0 #
-346 face $398 -1 -1 $-1 $194 $399 $4 $-1 $400 reversed single F F #
-347 loop $-1 -1 -1 $-1 $-1 $375 $281 F unknown #
-348 plane-surface $-1 -1 -1 $-1 8.9999999999999858 -5.9999999999999973 18 1 0 0 0 0 -1000 forward_v I I I I #
-349 straight-curve $-1 -1 -1 $-1 -6.7008190654257973 6.5000000000000258 7 1000 4.3368086899420187e-013 0 I I #
-350 integer_attrib-name_attrib-gen-attrib $-1 -1 $-1 $-1 $290 2 1 2 1 1 1 1 1 1 1 1 1 1 1 0 1 1 1 @11 DeleteFace1 0 #
-351 plane-surface $-1 -1 -1 $-1 -45 7.0000000000000018 7 1 0 0 0 0 -1000 forward_v I I I I #
-352 coedge $-1 -1 -1 $-1 $401 $402 $327 $381 forward $291 $-1 #
-353 coedge $-1 -1 -1 $-1 $296 $293 $317 $369 forward $213 $-1 #
-354 coedge $-1 -1 -1 $-1 $293 $328 $402 $403 reversed $213 $-1 #
-355 coedge $-1 -1 -1 $-1 $391 $365 $293 $356 forward $277 $-1 #
-356 edge $-1 -1 -1 $-1 $404 -0.00050000000000000706 $405 7.9936057773011265e-018 $355 $406 forward @7 unknown F #
-357 coedge $-1 -1 -1 $-1 $298 $407 $295 $358 reversed $262 $-1 #
-358 edge $-1 -1 -1 $-1 $315 0.044065462231909602 $361 0.057000000000000009 $295 $408 forward @7 unknown F #
-359 coedge $-1 -1 -1 $-1 $382 $296 $407 $409 forward $213 $-1 #
-360 vertex $-1 -1 -1 $-1 $369 $410 #
-361 vertex $-1 -1 -1 $-1 $297 $411 #
-362 straight-curve $-1 -1 -1 $-1 11.999999999999993 2.0000000000000062 1.8369701987211051e-016 -8.359070939180714e-029 -1.2046690805394495e-013 1000 I I #
-363 ellipse-curve $-1 -1 -1 $-1 -3.8176784167581062 3.5000000000000009 18 0 0 1 3.249999999999996 0 0 1 I I #
-364 ellipse-curve $-1 -1 -1 $-1 -3.8176784167581062 3.5000000000000009 4.0000000000000009 0 0 1 1.6000000000000112 0 0 1 I I #
-365 coedge $-1 -1 -1 $-1 $355 $309 $319 $371 forward $277 $-1 #
-366 ellipse-curve $-1 -1 -1 $-1 -3.8176784167581062 3.5000000000000009 7 0 0 1 3.249999999999996 0 0 1 I I #
-367 point $-1 -1 -1 $-1 -5.0676784167580351 6.5000000000000266 7 #
-368 point $-1 -1 -1 $-1 -0.934537768090415 1.9999999999999978 18 #
-369 edge $-1 -1 -1 $-1 $404 0.00035355339059327625 $360 0.0067175144212722072 $353 $412 forward @7 unknown F #
-370 straight-curve $-1 -1 -1 $-1 -0.93453776809041145 1.9999999999999991 11.500000000000025 -1000 -4.3368086899420187e-013 0 I I #
-371 edge $-1 -1 -1 $-1 $321 -0.014567678416758049 $404 7.105427357601002e-018 $365 $413 forward @7 unknown F #
-372 point $-1 -1 -1 $-1 -2.5676784167580635 6.4999999999999796 7 #
-373 coedge $-1 -1 -1 $-1 $414 $325 $386 $415 reversed $258 $-1 #
-374 coedge $-1 -1 -1 $-1 $325 $414 $416 $417 forward $258 $-1 #
-375 coedge $-1 -1 -1 $-1 $418 $419 $325 $376 forward $347 $-1 #
-376 edge $-1 -1 -1 $-1 $420 -0 $421 0.017999999999999999 $375 $422 forward @7 unknown F #
-377 coedge $-1 -1 -1 $-1 $416 $326 $418 $423 forward $183 $-1 #
-378 coedge $-1 -1 -1 $-1 $424 $425 $326 $379 forward $399 $-1 #
-379 edge $-1 -1 -1 $-1 $426 -0.0030000000000000001 $383 0 $378 $427 forward @7 unknown F #
-380 coedge $-1 -1 -1 $-1 $327 $416 $395 $428 reversed $183 $-1 #
-381 edge $-1 -1 -1 $-1 $384 -0.056999999999999995 $429 0 $352 $430 forward @7 unknown F #
-382 coedge $-1 -1 -1 $-1 $328 $359 $424 $431 reversed $213 $-1 #
-383 vertex $-1 -1 -1 $-1 $329 $432 #
-384 vertex $-1 -1 -1 $-1 $381 $433 #
-385 straight-curve $-1 -1 -1 $-1 11.999999999999993 6.9999999999999929 1.8369701987210277e-016 6.9388939039072294e-013 1000 0 I I #
-386 coedge $-1 -1 -1 $-1 $434 $330 $373 $415 forward $262 $-1 #
-387 coedge $-1 -1 -1 $-1 $331 $435 $330 $388 reversed $339 $-1 #
-388 edge $-1 -1 -1 $-1 $333 0 $436 0.0020000000000000013 $330 $437 forward @7 unknown F #
-389 straight-curve $-1 -1 -1 $-1 -45.000000000000014 1.9999999999999813 1.8369701987210277e-016 0 -1.2046690805394493e-013 1000 I I #
-390 point $-1 -1 -1 $-1 -45.000000000000014 1.9999999999999791 18 #
-391 coedge $-1 -1 -1 $-1 $335 $355 $438 $439 forward $277 $-1 #
-392 edge $-1 -1 -1 $-1 $440 0 $336 0.00050000000000004002 $335 $441 forward @7 unknown F #
-393 point $-1 -1 -1 $-1 -45 6.4999999999999618 7 #
-394 coedge $-1 -1 -1 $-1 $395 $338 $401 $442 forward $339 $-1 #
-395 coedge $-1 -1 -1 $-1 $435 $394 $380 $428 forward $339 $-1 #
-396 integer_attrib-name_attrib-gen-attrib $-1 -1 $-1 $-1 $344 2 1 2 1 1 1 1 1 1 1 1 1 1 1 0 1 1 1 @11 DeleteFace1 0 #
-397 plane-surface $-1 -1 -1 $-1 -22.500000000000007 4.5000000000000009 7 0 0 1 1000 0 0 forward_v I I I I #
-398 integer_attrib-name_attrib-gen-attrib $-1 -1 $-1 $-1 $346 2 1 2 1 1 1 1 1 1 1 1 1 1 1 0 1 1 1 @11 DeleteFace1 0 #
-399 loop $-1 -1 -1 $-1 $-1 $424 $346 F unknown #
-400 plane-surface $-1 -1 -1 $-1 -22.500000000000007 -5.9999999999999973 1.8369701987210277e-016 0 1 0 0 0 1000 forward_v I I I I #
-401 coedge $-1 -1 -1 $-1 $438 $352 $394 $442 reversed $291 $-1 #
-402 coedge $-1 -1 -1 $-1 $352 $438 $354 $403 forward $291 $-1 #
-403 edge $-1 -1 -1 $-1 $405 0 $384 0.0070000000000000001 $402 $443 forward @7 unknown F #
-404 vertex $-1 -1 -1 $-1 $371 $444 #
-405 vertex $-1 -1 -1 $-1 $356 $445 #
-406 straight-curve $-1 -1 -1 $-1 11.999999999999993 6.9999999999999929 7 6.9388939039072294e-013 1000 0 I I #
-407 coedge $-1 -1 -1 $-1 $357 $446 $359 $409 reversed $262 $-1 #
-408 straight-curve $-1 -1 -1 $-1 -45.000000000000014 1.9999999999999791 18 1000 4.3368086899420187e-013 0 I I #
-409 edge $-1 -1 -1 $-1 $361 -6.4392935428259075e-017 $447 0.0079999999999999377 $359 $448 forward @7 unknown F #
-410 point $-1 -1 -1 $-1 11.999999999999993 2.0000000000000049 11.500000000000025 #
-411 point $-1 -1 -1 $-1 11.999999999999993 2.000000000000004 18 #
-412 straight-curve $-1 -1 -1 $-1 11.999999999999993 6.7499999999999858 6.7499999999999964 -4.9065389333867743e-013 -707.10678118654425 707.10678118655096 I I #
-413 straight-curve $-1 -1 -1 $-1 11.999999999999986 6.4999999999999858 7 1000 4.3368086899420187e-013 0 I I #
-414 coedge $-1 -1 -1 $-1 $374 $373 $435 $449 forward $258 $-1 #
-415 edge $-1 -1 -1 $-1 $436 0 $420 0.053999999999999979 $386 $450 forward @7 unknown F #
-416 coedge $-1 -1 -1 $-1 $380 $377 $374 $417 reversed $183 $-1 #
-417 edge $-1 -1 -1 $-1 $451 0 $421 0.053999999999999992 $374 $452 forward @7 unknown F #
-418 coedge $-1 -1 -1 $-1 $453 $375 $377 $423 reversed $347 $-1 #
-419 coedge $-1 -1 -1 $-1 $375 $453 $434 $454 forward $347 $-1 #
-420 vertex $-1 -1 -1 $-1 $376 $455 #
-421 vertex $-1 -1 -1 $-1 $417 $456 #
-422 straight-curve $-1 -1 -1 $-1 8.9999999999999858 2.6645352591003757e-015 18 0 0 -1000 I I #
-423 edge $-1 -1 -1 $-1 $426 0 $421 0.0060000000000000001 $377 $457 forward @7 unknown F #
-424 coedge $-1 -1 -1 $-1 $458 $378 $382 $431 forward $399 $-1 #
-425 coedge $-1 -1 -1 $-1 $378 $458 $453 $459 forward $399 $-1 #
-426 vertex $-1 -1 -1 $-1 $459 $460 #
-427 straight-curve $-1 -1 -1 $-1 11.999999999999986 -5.9999999999999973 2.449293598294703e-016 1000 0 8.164311994315669e-014 I I #
-428 edge $-1 -1 -1 $-1 $429 0 $451 0.007000000000000021 $395 $461 forward @7 unknown F #
-429 vertex $-1 -1 -1 $-1 $381 $462 #
-430 straight-curve $-1 -1 -1 $-1 -45 7.0000000000000018 1.8369701987210277e-016 -1000 9.6373526443155967e-015 0 I I #
-431 edge $-1 -1 -1 $-1 $383 -0.017999999999999999 $447 0 $424 $463 forward @7 unknown F #
-432 point $-1 -1 -1 $-1 11.999999999999986 -5.9999999999999973 2.449293598294703e-016 #
-433 point $-1 -1 -1 $-1 11.999999999999993 7.0000000000000009 1.8369701987210277e-016 #
-434 coedge $-1 -1 -1 $-1 $446 $386 $419 $454 reversed $262 $-1 #
-435 coedge $-1 -1 -1 $-1 $387 $395 $414 $449 reversed $339 $-1 #
-436 vertex $-1 -1 -1 $-1 $449 $464 #
-437 straight-curve $-1 -1 -1 $-1 -45.000000000000014 1.9999999999999791 18 1.7347234759768063e-012 -1000 0 I I #
-438 coedge $-1 -1 -1 $-1 $402 $401 $391 $439 reversed $291 $-1 #
-439 edge $-1 -1 -1 $-1 $405 -0.056999999999999995 $440 0 $391 $465 forward @7 unknown F #
-440 vertex $-1 -1 -1 $-1 $439 $466 #
-441 straight-curve $-1 -1 -1 $-1 -45 7.0000000000000018 7 0 -1000 0 I I #
-442 edge $-1 -1 -1 $-1 $440 -0 $429 0.0070000000000000001 $394 $467 forward @7 unknown F #
-443 straight-curve $-1 -1 -1 $-1 11.999999999999993 7.0000000000000009 7 0 0 -1000 I I #
-444 point $-1 -1 -1 $-1 11.999999999999993 6.4999999999999858 7 #
-445 point $-1 -1 -1 $-1 11.999999999999993 7.0000000000000009 7 #
-446 coedge $-1 -1 -1 $-1 $407 $434 $458 $468 reversed $262 $-1 #
-447 vertex $-1 -1 -1 $-1 $409 $469 #
-448 straight-curve $-1 -1 -1 $-1 11.999999999999993 1.9999999999999396 18 -6.9388939039072304e-013 -1000 0 I I #
-449 edge $-1 -1 -1 $-1 $436 -0.010999999999999999 $451 0.007000000000000001 $414 $470 forward @7 unknown F #
-450 straight-curve $-1 -1 -1 $-1 -45.000000000000007 -2.2204460492503131e-014 18 1000 4.3368086899420187e-013 0 I I #
-451 vertex $-1 -1 -1 $-1 $428 $471 #
-452 straight-curve $-1 -1 -1 $-1 -45.000000000000007 -1.9539925233402755e-014 0 1000 4.3368086899420187e-013 0 I I #
-453 coedge $-1 -1 -1 $-1 $419 $418 $425 $459 reversed $347 $-1 #
-454 edge $-1 -1 -1 $-1 $472 0 $420 0.0059999999999999984 $419 $473 forward @7 unknown F #
-455 point $-1 -1 -1 $-1 8.9999999999999716 8.8817841970012523e-016 18 #
-456 point $-1 -1 -1 $-1 8.9999999999999858 2.6645352591003757e-015 0 #
-457 straight-curve $-1 -1 -1 $-1 8.9999999999999858 -5.9999999999999973 0 0 1000 0 I I #
-458 coedge $-1 -1 -1 $-1 $425 $424 $446 $468 forward $399 $-1 #
-459 edge $-1 -1 -1 $-1 $472 0 $426 0.017999999999999999 $425 $474 forward @7 unknown F #
-460 point $-1 -1 -1 $-1 8.9999999999999858 -5.9999999999999973 0 #
-461 straight-curve $-1 -1 -1 $-1 -45 7.0000000000000018 1.8369701987210277e-016 0 -1000 0 I I #
-462 point $-1 -1 -1 $-1 -45 7.0000000000000018 1.8369701987210277e-016 #
-463 straight-curve $-1 -1 -1 $-1 11.999999999999986 -5.9999999999999973 18 0 0 1000 I I #
-464 point $-1 -1 -1 $-1 -45.000000000000007 -2.2204460492503131e-014 18 #
-465 straight-curve $-1 -1 -1 $-1 -45 7.0000000000000018 7 -1000 9.6373526443155967e-015 0 I I #
-466 point $-1 -1 -1 $-1 -45 7.0000000000000018 7 #
-467 straight-curve $-1 -1 -1 $-1 -45 7.0000000000000018 7 -0 -0 -1000 I I #
-468 edge $-1 -1 -1 $-1 $447 0 $472 0.0030000000000000001 $458 $475 forward @7 unknown F #
-469 point $-1 -1 -1 $-1 11.999999999999986 -5.9999999999999973 18 #
-470 straight-curve $-1 -1 -1 $-1 -45.000000000000014 5.3290705182007514e-015 7.0000000000000009 0 0 -1000 I I #
-471 point $-1 -1 -1 $-1 -45.000000000000007 -1.9539925233402755e-014 0 #
-472 vertex $-1 -1 -1 $-1 $468 $476 #
-473 straight-curve $-1 -1 -1 $-1 8.9999999999999858 -5.9999999999999973 18 0 1000 0 I I #
-474 straight-curve $-1 -1 -1 $-1 8.9999999999999858 -5.9999999999999973 18 0 0 -1000 I I #
-475 straight-curve $-1 -1 -1 $-1 11.999999999999986 -5.9999999999999973 18 -1000 0 0 I I #
-476 point $-1 -1 -1 $-1 8.9999999999999858 -5.9999999999999973 18 #
End-of-ACIS-data 